<mxfile host="app.diagrams.net" modified="2020-09-09T03:58:05.021Z" agent="5.0 (Windows NT 10.0; Win64; x64) AppleWebKit/537.36 (KHTML, like Gecko) Chrome/85.0.4183.83 Safari/537.36" etag="bMemJvva0hjhoPLz4e4u" version="13.6.9" type="github">
  <diagram id="sXjoHPyAZuwcp1akYdWN" name="Page-1">
    <mxGraphModel dx="868" dy="401" grid="1" gridSize="10" guides="1" tooltips="1" connect="1" arrows="1" fold="1" page="1" pageScale="1" pageWidth="827" pageHeight="1169" math="0" shadow="0">
      <root>
        <mxCell id="0" />
        <mxCell id="1" parent="0" />
        <mxCell id="GYnRXy5taqGCTijIhgdI-2" style="edgeStyle=orthogonalEdgeStyle;rounded=0;orthogonalLoop=1;jettySize=auto;html=1;exitX=0.5;exitY=1;exitDx=0;exitDy=0;" edge="1" parent="1" source="Nq4jx1xt7WjTtrhTnP9q-1" target="GYnRXy5taqGCTijIhgdI-1">
          <mxGeometry relative="1" as="geometry" />
        </mxCell>
        <mxCell id="Nq4jx1xt7WjTtrhTnP9q-1" value="流程图demo" style="rounded=1;whiteSpace=wrap;html=1;" parent="1" vertex="1">
          <mxGeometry x="280" y="40" width="120" height="60" as="geometry" />
        </mxCell>
        <mxCell id="GYnRXy5taqGCTijIhgdI-1" value="流程图到此" style="rounded=1;whiteSpace=wrap;html=1;" vertex="1" parent="1">
          <mxGeometry x="280" y="200" width="120" height="60" as="geometry" />
        </mxCell>
      </root>
    </mxGraphModel>
  </diagram>
</mxfile>
